<?xml version="1.0" encoding="UTF-8"?><svg id="Layer_2" xmlns="http://www.w3.org/2000/svg" viewBox="0 0 1054.09 392.67"><defs><style>.cls-1{fill:#fff;stroke-width:0px;}</style></defs><g id="Layer_1-2"><path class="cls-1" d="M114.86,332.88c0,2.9-2.28,5.27-5.18,5.43-4.24.23-8.5.32-11.99.32-46.72,0-62.36-22.09-64.23-57.6-.17-4.42-.34-9.01-.34-13.76v-56.58c0-20.22-11.21-24.64-27.01-24.64h-.68c-3,0-5.44-2.43-5.44-5.44v-22.6c0-3,2.43-5.44,5.44-5.44h.68c22.26,0,27.01-9.18,27.01-24.81v-54.54c0-4.59.17-9.18.34-13.59C35.34,23.96,50.97,0,97.7,0c3.09,0,7.53.18,12.07.47,2.86.19,5.09,2.56,5.09,5.43v22.64c0,3.01-2.45,5.45-5.46,5.44-.45,0-.89,0-1.34,0-25.66,0-34.32,8.16-34.32,39.76v55.73c0,16.14-4.6,27.68-14.39,35.5-2.67,2.13-2.68,6.31-.03,8.46,9.47,7.71,13.58,19.49,13.58,35.72v57.94c0,31.09,10.36,37.55,36.53,37.55h0c3,0,5.44,2.43,5.44,5.44v22.8Z"/><path class="cls-1" d="M165.76,5.75c0-2.9,2.28-5.27,5.18-5.43,4.24-.23,8.5-.32,11.99-.32,46.72,0,62.36,22.09,64.23,57.6.17,4.42.34,9.01.34,13.76v56.58c0,20.22,11.21,24.64,27.01,24.64h.68c3,0,5.44,2.43,5.44,5.44v22.6c0,3-2.43,5.44-5.44,5.44h-.68c-22.26,0-27.01,9.18-27.01,24.81v54.54c0,4.59-.17,9.18-.34,13.59-1.87,35.68-17.5,59.64-64.23,59.64-3.09,0-7.53-.18-12.07-.47-2.86-.19-5.09-2.56-5.09-5.43v-22.64c0-3.01,2.45-5.45,5.46-5.44.45,0,.89,0,1.34,0,25.66,0,34.32-8.16,34.32-39.76v-55.73c0-16.14,4.6-27.68,14.39-35.5,2.67-2.13,2.68-6.31.03-8.46-9.47-7.71-13.58-19.49-13.58-35.72v-57.94c0-31.09-10.36-37.55-36.53-37.55h0c-3,0-5.44-2.43-5.44-5.44V5.75Z"/><path class="cls-1" d="M123.44,372.83v3.26c0,9.15,7.42,16.57,16.57,16.57h0c9.15,0,16.57-7.42,16.57-16.57v-3.26h-33.14Z"/><rect class="cls-1" x="113.27" y="342.95" width="53.5" height="10.15" rx="3.78" ry="3.78"/><rect class="cls-1" x="113.27" y="357.89" width="53.5" height="10.15" rx="3.78" ry="3.78"/><path class="cls-1" d="M827.96,87.83h-99.89c-20.39,0-36.99,16.59-36.99,36.99v137.11h40.9v-54.82h92.07v54.82h41.13V124.82c0-20.39-16.69-36.99-37.21-36.99ZM824.05,128.73v37.47h-92.07v-37.47h92.07Z"/><path class="cls-1" d="M461.25,87.83h-100.12c-20.39,0-36.99,16.59-36.99,36.99v33.52c0,20.39,16.59,36.99,36.99,36.99h95.98v25.7h-92.06v-14.04h-40.9v17.96c0,20.39,16.59,36.99,36.99,36.99h100.12c20.39,0,36.99-16.59,36.99-36.99v-33.52c0-20.39-16.59-36.99-36.99-36.99h-96.21v-25.7h92.06v14.04h41.13v-17.96c0-20.39-16.59-36.99-36.99-36.99Z"/><path class="cls-1" d="M1016.87,88.06h-136.88v173.87h40.9v-55.73l95.98-.22c20.52,0,37.21-16.59,37.21-36.99v-43.94c0-20.39-16.69-36.99-37.21-36.99ZM1012.96,128.96v36.12h-92.07v-36.12h92.07Z"/><path class="cls-1" d="M648.34,88.06h-136.88v173.87h40.9v-55.73l95.98-.22c20.52,0,37.21-16.59,37.21-36.99v-43.94c0-20.39-16.69-36.99-37.21-36.99ZM644.43,128.96v36.12h-92.07v-36.12h92.07Z"/><path class="cls-1" d="M357.09,293.5h-14.64v27.6h-3.71v-27.6h-14.59v-3.36h32.95v3.36Z"/><path class="cls-1" d="M393.13,317.65v3.45h-29.94v-30.96h29.5v3.45h-25.78v10.04h21.85v3.45h-21.85v10.57h26.22Z"/><path class="cls-1" d="M428.57,312.65l3.54,1.77c-2.92,4.64-8.31,7.61-15.88,7.61-11.54,0-18.62-6.37-18.62-16.41s7.08-16.41,18.75-16.41c7.43,0,12.82,3.01,15.74,7.61l-3.54,1.77c-2.43-4.11-6.85-5.93-12.25-5.93-8.98,0-14.9,4.42-14.9,12.96s5.93,12.96,14.9,12.96c5.39,0,9.86-1.77,12.25-5.93Z"/><path class="cls-1" d="M472.04,290.14v30.96h-3.71v-13.93h-25.47v13.93h-3.72v-30.96h3.72v13.49h25.47v-13.49h3.71Z"/><path class="cls-1" d="M515.21,290.14v30.96h-3.27l-26-26.22v26.22h-3.63v-30.96h4.02l25.25,25.52v-25.52h3.63Z"/><path class="cls-1" d="M523.18,305.62c0-10.08,7.08-16.41,18.84-16.41s18.84,6.32,18.84,16.41-7.08,16.41-18.84,16.41-18.84-6.32-18.84-16.41ZM557.06,305.62c0-8.31-5.93-12.96-15.04-12.96s-15.04,4.64-15.04,12.96,5.93,12.96,15.04,12.96,15.04-4.64,15.04-12.96Z"/><path class="cls-1" d="M596.25,317.65v3.45h-27.42v-30.96h3.72v27.51h23.7Z"/><path class="cls-1" d="M597.93,305.62c0-10.08,7.08-16.41,18.84-16.41s18.84,6.32,18.84,16.41-7.08,16.41-18.84,16.41-18.84-6.32-18.84-16.41ZM631.81,305.62c0-8.31-5.93-12.96-15.04-12.96s-15.04,4.64-15.04,12.96,5.93,12.96,15.04,12.96,15.04-4.64,15.04-12.96Z"/><path class="cls-1" d="M677.68,313.58c-2.56,4.82-8.76,8.45-17.34,8.45-11.99,0-19.06-6.32-19.06-16.41s7.08-16.41,18.93-16.41c7.56,0,12.65,2.83,15.74,6.46l-3.23,2.26c-2.79-3.49-6.9-5.26-12.52-5.26-9.24,0-15.12,4.38-15.12,12.96s5.93,12.96,15.39,12.96c6.15,0,11.19-1.81,13.49-6.1v-4.02h-14.06v-3.45h17.78v8.58Z"/><path class="cls-1" d="M684.36,290.14l13,16.76,12.91-16.76h4.42l-15.52,20.12v10.83h-3.71v-10.83l-15.57-20.12h4.47Z"/><path class="cls-1" d="M764.19,312.12c0,5.7-5.79,9.91-15.88,9.91-6.77,0-13.27-2.12-18.09-6.37l2.61-2.79c4.51,3.98,9.51,5.71,15.7,5.71,7.47,0,11.85-2.34,11.85-6.19s-4.56-4.69-12.91-5.4c-8.27-.71-16.19-2.52-16.19-8.62s7.34-9.15,15.61-9.15c6.72,0,12.25,2.34,15.83,5.53l-2.92,2.48c-3.01-2.96-7.56-4.51-12.74-4.56-5.53-.04-11.99,1.5-11.99,5.57,0,3.85,5.84,4.64,13.14,5.22,9.42.75,15.96,2.56,15.96,8.67Z"/><path class="cls-1" d="M769.15,305.62c0-10.08,7.08-16.41,18.84-16.41s18.84,6.32,18.84,16.41-7.08,16.41-18.84,16.41-18.84-6.32-18.84-16.41ZM803.03,305.62c0-8.31-5.93-12.96-15.04-12.96s-15.04,4.64-15.04,12.96,5.93,12.96,15.04,12.96,15.04-4.64,15.04-12.96Z"/><path class="cls-1" d="M842.22,317.65v3.45h-27.42v-30.96h3.72v27.51h23.7Z"/><path class="cls-1" d="M878.09,290.14v16.36c0,9.02-5.66,15.52-16.32,15.52s-16.36-6.5-16.36-15.52v-16.36h3.72v16.14c0,7.61,4.56,12.29,12.65,12.29s12.6-4.69,12.6-12.29v-16.14h3.72Z"/><path class="cls-1" d="M916.53,293.5h-14.64v27.6h-3.72v-27.6h-14.59v-3.36h32.95v3.36Z"/><path class="cls-1" d="M922.63,321.1v-30.96h3.72v30.96h-3.72Z"/><path class="cls-1" d="M934.31,305.62c0-10.08,7.08-16.41,18.84-16.41s18.84,6.32,18.84,16.41-7.08,16.41-18.84,16.41-18.84-6.32-18.84-16.41ZM968.19,305.62c0-8.31-5.93-12.96-15.04-12.96s-15.04,4.64-15.04,12.96,5.93,12.96,15.04,12.96,15.04-4.64,15.04-12.96Z"/><path class="cls-1" d="M1012.86,290.14v30.96h-3.27l-26-26.22v26.22h-3.63v-30.96h4.02l25.25,25.52v-25.52h3.63Z"/><path class="cls-1" d="M1054.09,312.12c0,5.7-5.79,9.91-15.88,9.91-6.77,0-13.27-2.12-18.09-6.37l2.61-2.79c4.51,3.98,9.51,5.71,15.7,5.71,7.47,0,11.85-2.34,11.85-6.19s-4.56-4.69-12.91-5.4c-8.27-.71-16.19-2.52-16.19-8.62s7.34-9.15,15.61-9.15c6.72,0,12.25,2.34,15.83,5.53l-2.92,2.48c-3.01-2.96-7.56-4.51-12.74-4.56-5.53-.04-11.99,1.5-11.99,5.57,0,3.85,5.84,4.64,13.14,5.22,9.42.75,15.96,2.56,15.96,8.67Z"/></g></svg>